<svg xmlns="http://www.w3.org/2000/svg" width="21.485" height="18.044" viewBox="0 0 21.485 18.044">
  <g transform="translate(1 1.102)">
    <path d="M15.171,20.314V18.543A3.543,3.543,0,0,0,11.628,15H4.543A3.543,3.543,0,0,0,1,18.543v1.771"
          transform="translate(-1 -4.372)" fill="none" stroke="#ef6c79" stroke-linecap="round" stroke-linejoin="round"
          stroke-width="2"/>
    <path d="M12.085,6.543A3.543,3.543,0,1,1,8.543,3,3.543,3.543,0,0,1,12.085,6.543Z" transform="translate(-1.457 -3)"
          fill="none" stroke="#ef6c79" stroke-linecap="round" stroke-linejoin="round" stroke-width="2"/>
    <path d="M22.657,20.329V18.558A3.543,3.543,0,0,0,20,15.13" transform="translate(-3.172 -4.387)" fill="none"
          stroke="#ef6c79" stroke-linecap="round" stroke-linejoin="round" stroke-width="2"/>
    <path d="M16,3.13a3.543,3.543,0,0,1,0,6.864" transform="translate(-2.715 -3.015)" fill="none" stroke="#ef6c79"
          stroke-linecap="round" stroke-linejoin="round" stroke-width="2"/>
  </g>
</svg>
